<?xml version="1.0" encoding="utf-8"?>
<!-- Generator: Adobe Illustrator 23.0.0, SVG Export Plug-In . SVG Version: 6.00 Build 0)  -->
<svg version="1.1" id="Layer_1" xmlns="http://www.w3.org/2000/svg" xmlns:xlink="http://www.w3.org/1999/xlink" x="0px" y="0px"
	 viewBox="0 0 1000 1000" style="enable-background:new 0 0 1000 1000;" xml:space="preserve">
<style type="text/css">
	.st0{clip-path:url(#SVGID_2_);fill:#2A2939;}
	.st1{opacity:0.15;}
	.st2{clip-path:url(#SVGID_4_);}
	.st3{fill:none;stroke:#77DFF7;stroke-width:0.5;stroke-miterlimit:10;}
	.st4{fill:url(#SVGID_5_);}
	.st5{fill:#1A7591;}
	.st6{fill:#327F87;}
	.st7{fill:#134C62;}
	.st8{fill:#D4FBFC;}
	.st9{fill:#721818;}
	.st10{fill:#892020;}
	.st11{fill:#E84242;}
	.st12{fill:#DC3333;}
	.st13{opacity:0.41;}
	.st14{opacity:0.28;fill:#134C62;}
</style>
<g>
	<defs>
		<rect id="SVGID_1_" width="1000" height="1000"/>
	</defs>
	<clipPath id="SVGID_2_">
		<use xlink:href="#SVGID_1_"  style="overflow:visible;"/>
	</clipPath>
	<rect x="-80" y="-84" class="st0" width="1196" height="1196"/>
</g>
<g class="st1">
	<defs>
		<rect id="SVGID_3_" class="st1" width="1000" height="1000"/>
	</defs>
	<clipPath id="SVGID_4_">
		<use xlink:href="#SVGID_3_"  style="overflow:visible;"/>
	</clipPath>
	<g class="st2">
		<polygon class="st3" points="500,1360.19 1989.9,500 500,-360.19 -989.9,500 		"/>
		<line class="st3" x1="-960.69" y1="516.87" x2="529.22" y2="-343.33"/>
		<line class="st3" x1="-931.47" y1="533.74" x2="558.43" y2="-326.46"/>
		<line class="st3" x1="-902.26" y1="550.6" x2="587.65" y2="-309.59"/>
		<line class="st3" x1="-873.05" y1="567.47" x2="616.86" y2="-292.73"/>
		<line class="st3" x1="-843.83" y1="584.34" x2="646.07" y2="-275.86"/>
		<line class="st3" x1="-814.62" y1="601.2" x2="675.29" y2="-259"/>
		<line class="st3" x1="-785.4" y1="618.07" x2="704.5" y2="-242.13"/>
		<line class="st3" x1="-756.19" y1="634.93" x2="733.71" y2="-225.26"/>
		<line class="st3" x1="-726.98" y1="651.8" x2="762.93" y2="-208.4"/>
		<line class="st3" x1="-697.76" y1="668.67" x2="792.14" y2="-191.53"/>
		<line class="st3" x1="-668.55" y1="685.53" x2="821.35" y2="-174.66"/>
		<line class="st3" x1="-639.34" y1="702.4" x2="850.57" y2="-157.8"/>
		<line class="st3" x1="-610.12" y1="719.27" x2="879.78" y2="-140.93"/>
		<line class="st3" x1="-580.91" y1="736.13" x2="909" y2="-124.06"/>
		<line class="st3" x1="-551.7" y1="753" x2="938.21" y2="-107.2"/>
		<line class="st3" x1="-522.48" y1="769.87" x2="967.42" y2="-90.33"/>
		<line class="st3" x1="-493.27" y1="786.73" x2="996.64" y2="-73.46"/>
		<line class="st3" x1="-464.05" y1="803.6" x2="1025.85" y2="-56.6"/>
		<line class="st3" x1="-434.84" y1="820.47" x2="1055.06" y2="-39.73"/>
		<line class="st3" x1="-405.63" y1="837.33" x2="1084.28" y2="-22.86"/>
		<line class="st3" x1="-376.41" y1="854.2" x2="1113.49" y2="-6"/>
		<line class="st3" x1="-347.2" y1="871.07" x2="1142.7" y2="10.87"/>
		<line class="st3" x1="-317.99" y1="887.93" x2="1171.92" y2="27.74"/>
		<line class="st3" x1="-288.77" y1="904.8" x2="1201.13" y2="44.6"/>
		<line class="st3" x1="-259.56" y1="921.67" x2="1230.35" y2="61.47"/>
		<line class="st3" x1="-230.35" y1="938.53" x2="1259.56" y2="78.33"/>
		<line class="st3" x1="-201.13" y1="955.4" x2="1288.77" y2="95.2"/>
		<line class="st3" x1="-171.92" y1="972.26" x2="1317.99" y2="112.07"/>
		<line class="st3" x1="-142.7" y1="989.13" x2="1347.2" y2="128.93"/>
		<line class="st3" x1="-113.49" y1="1006" x2="1376.41" y2="145.8"/>
		<line class="st3" x1="-84.28" y1="1022.86" x2="1405.63" y2="162.67"/>
		<line class="st3" x1="-55.06" y1="1039.73" x2="1434.84" y2="179.53"/>
		<line class="st3" x1="-25.85" y1="1056.6" x2="1464.05" y2="196.4"/>
		<line class="st3" x1="3.36" y1="1073.46" x2="1493.27" y2="213.27"/>
		<line class="st3" x1="32.58" y1="1090.33" x2="1522.48" y2="230.13"/>
		<line class="st3" x1="61.79" y1="1107.2" x2="1551.7" y2="247"/>
		<line class="st3" x1="91" y1="1124.06" x2="1580.91" y2="263.87"/>
		<line class="st3" x1="120.22" y1="1140.93" x2="1610.12" y2="280.73"/>
		<line class="st3" x1="149.43" y1="1157.8" x2="1639.34" y2="297.6"/>
		<line class="st3" x1="178.65" y1="1174.66" x2="1668.55" y2="314.47"/>
		<line class="st3" x1="207.86" y1="1191.53" x2="1697.76" y2="331.33"/>
		<line class="st3" x1="237.07" y1="1208.4" x2="1726.98" y2="348.2"/>
		<line class="st3" x1="266.29" y1="1225.26" x2="1756.19" y2="365.07"/>
		<line class="st3" x1="295.5" y1="1242.13" x2="1785.4" y2="381.93"/>
		<line class="st3" x1="324.71" y1="1259" x2="1814.62" y2="398.8"/>
		<line class="st3" x1="353.93" y1="1275.86" x2="1843.83" y2="415.66"/>
		<line class="st3" x1="383.14" y1="1292.73" x2="1873.05" y2="432.53"/>
		<line class="st3" x1="412.35" y1="1309.59" x2="1902.26" y2="449.4"/>
		<line class="st3" x1="441.57" y1="1326.46" x2="1931.47" y2="466.26"/>
		<line class="st3" x1="470.78" y1="1343.33" x2="1960.69" y2="483.13"/>
		<line class="st3" x1="1960.69" y1="516.86" x2="470.79" y2="-343.33"/>
		<line class="st3" x1="1931.47" y1="533.73" x2="441.58" y2="-326.46"/>
		<line class="st3" x1="1902.26" y1="550.6" x2="412.36" y2="-309.59"/>
		<line class="st3" x1="1873.04" y1="567.46" x2="383.15" y2="-292.73"/>
		<line class="st3" x1="1843.83" y1="584.33" x2="353.94" y2="-275.86"/>
		<line class="st3" x1="1814.62" y1="601.2" x2="324.72" y2="-258.99"/>
		<line class="st3" x1="1785.4" y1="618.06" x2="295.51" y2="-242.13"/>
		<line class="st3" x1="1756.19" y1="634.93" x2="266.29" y2="-225.26"/>
		<line class="st3" x1="1726.98" y1="651.8" x2="237.08" y2="-208.39"/>
		<line class="st3" x1="1697.76" y1="668.66" x2="207.87" y2="-191.53"/>
		<line class="st3" x1="1668.55" y1="685.53" x2="178.65" y2="-174.66"/>
		<line class="st3" x1="1639.33" y1="702.4" x2="149.44" y2="-157.8"/>
		<line class="st3" x1="1610.12" y1="719.26" x2="120.22" y2="-140.93"/>
		<line class="st3" x1="1580.91" y1="736.13" x2="91.01" y2="-124.06"/>
		<line class="st3" x1="1551.69" y1="753" x2="61.8" y2="-107.2"/>
		<line class="st3" x1="1522.48" y1="769.86" x2="32.58" y2="-90.33"/>
		<line class="st3" x1="1493.27" y1="786.73" x2="3.37" y2="-73.46"/>
		<line class="st3" x1="1464.05" y1="803.6" x2="-25.84" y2="-56.6"/>
		<line class="st3" x1="1434.84" y1="820.46" x2="-55.06" y2="-39.73"/>
		<line class="st3" x1="1405.62" y1="837.33" x2="-84.27" y2="-22.86"/>
		<line class="st3" x1="1376.41" y1="854.2" x2="-113.49" y2="-6"/>
		<line class="st3" x1="1347.2" y1="871.06" x2="-142.7" y2="10.87"/>
		<line class="st3" x1="1317.98" y1="887.93" x2="-171.91" y2="27.74"/>
		<line class="st3" x1="1288.77" y1="904.8" x2="-201.13" y2="44.6"/>
		<line class="st3" x1="1259.55" y1="921.66" x2="-230.34" y2="61.47"/>
		<line class="st3" x1="1230.34" y1="938.53" x2="-259.55" y2="78.34"/>
		<line class="st3" x1="1201.13" y1="955.4" x2="-288.77" y2="95.2"/>
		<line class="st3" x1="1171.91" y1="972.26" x2="-317.98" y2="112.07"/>
		<line class="st3" x1="1142.7" y1="989.13" x2="-347.2" y2="128.94"/>
		<polyline class="st3" points="1113.49,1006 237.08,500 -376.41,145.8 		"/>
		<line class="st3" x1="1084.27" y1="1022.86" x2="-405.62" y2="162.67"/>
		<line class="st3" x1="1055.06" y1="1039.73" x2="-434.84" y2="179.54"/>
		<line class="st3" x1="1025.84" y1="1056.6" x2="-464.05" y2="196.4"/>
		<line class="st3" x1="996.63" y1="1073.46" x2="-493.27" y2="213.27"/>
		<line class="st3" x1="967.42" y1="1090.33" x2="-522.48" y2="230.14"/>
		<line class="st3" x1="938.2" y1="1107.2" x2="-551.69" y2="247"/>
		<line class="st3" x1="908.99" y1="1124.06" x2="-580.91" y2="263.87"/>
		<line class="st3" x1="879.78" y1="1140.93" x2="-610.12" y2="280.74"/>
		<line class="st3" x1="850.56" y1="1157.8" x2="-639.33" y2="297.6"/>
		<line class="st3" x1="821.35" y1="1174.66" x2="-668.55" y2="314.47"/>
		<line class="st3" x1="792.13" y1="1191.53" x2="-697.76" y2="331.34"/>
		<line class="st3" x1="762.92" y1="1208.39" x2="-726.98" y2="348.2"/>
		<line class="st3" x1="733.71" y1="1225.26" x2="-756.19" y2="365.07"/>
		<line class="st3" x1="704.49" y1="1242.13" x2="-785.4" y2="381.94"/>
		<line class="st3" x1="675.28" y1="1258.99" x2="-814.62" y2="398.8"/>
		<line class="st3" x1="646.06" y1="1275.86" x2="-843.83" y2="415.67"/>
		<line class="st3" x1="616.85" y1="1292.73" x2="-873.04" y2="432.54"/>
		<line class="st3" x1="587.64" y1="1309.59" x2="-902.26" y2="449.4"/>
		<line class="st3" x1="558.42" y1="1326.46" x2="-931.47" y2="466.27"/>
		<line class="st3" x1="529.21" y1="1343.33" x2="-960.69" y2="483.14"/>
	</g>
</g>
<g>
	<radialGradient id="SVGID_5_" cx="500" cy="569.4617" r="197.8188" gradientUnits="userSpaceOnUse">
		<stop  offset="1.198083e-07" style="stop-color:#2A2939"/>
		<stop  offset="0.8917" style="stop-color:#2A2939;stop-opacity:0.1083"/>
		<stop  offset="1" style="stop-color:#2A2939;stop-opacity:0"/>
	</radialGradient>
	<ellipse class="st4" cx="500" cy="569.46" rx="242.28" ry="139.88"/>
	<g>
		<g>
			<g>
				<g>
					<polygon class="st5" points="422.13,440.75 464.77,415.97 464.35,560.95 421.72,585.72 					"/>
				</g>
				<g>
					<polygon class="st5" points="492.39,414.36 535.03,389.58 534.43,600.63 491.79,625.41 					"/>
				</g>
				<g>
					<polygon class="st5" points="567.6,320.57 610.23,295.79 609.26,639.98 566.62,664.76 					"/>
				</g>
				<g>
					<g>
						<polygon class="st6" points="380.07,416.46 422.7,391.68 464.77,415.97 422.13,440.75 						"/>
					</g>
					<g>
						<polygon class="st6" points="450.34,390.08 492.98,365.3 535.03,389.58 492.39,414.36 						"/>
					</g>
					<g>
						<polygon class="st6" points="525.54,296.28 568.17,271.5 610.23,295.79 567.6,320.57 						"/>
					</g>
				</g>
			</g>
			<g>
				<g>
					<polygon class="st7" points="422.13,440.75 421.72,585.72 379.66,561.44 380.07,416.46 					"/>
				</g>
				<g>
					<polygon class="st7" points="492.39,414.36 491.79,625.41 449.74,601.13 450.34,390.08 					"/>
				</g>
				<g>
					<polygon class="st7" points="567.6,320.57 566.62,664.76 524.56,640.48 525.54,296.28 					"/>
				</g>
			</g>
		</g>
		<g>
			
				<ellipse transform="matrix(0.8646 -0.5025 0.5025 0.8646 -226.0034 288.5578)" class="st8" cx="422.42" cy="563.63" rx="39.4" ry="68.02"/>
		</g>
		<g>
			<g>
				<polygon class="st9" points="529.08,721.28 549.94,709.16 540.53,716.37 519.67,728.5 				"/>
			</g>
			<path class="st10" d="M466.39,601.97c-0.35,0.15-0.7,0.3-1.07,0.43c-0.29,0.11-0.59,0.2-0.88,0.29
				c-0.18,0.06-0.36,0.12-0.55,0.17c-0.36,0.1-0.73,0.19-1.1,0.27c-0.14,0.03-0.27,0.07-0.41,0.1c-0.07,0.01-0.15,0.02-0.22,0.04
				c-0.61,0.12-1.23,0.21-1.87,0.27c-0.22,0.02-0.44,0.04-0.66,0.06c-0.42,0.03-0.84,0.05-1.27,0.06c-0.24,0.01-0.48,0.01-0.72,0.01
				c-0.34,0-0.68-0.02-1.03-0.03c-0.28-0.01-0.55-0.02-0.83-0.04c-0.29-0.02-0.58-0.06-0.86-0.09c-0.32-0.03-0.63-0.07-0.96-0.11
				c-0.27-0.04-0.54-0.09-0.81-0.13c-0.34-0.06-0.69-0.12-1.03-0.19c-0.23-0.05-0.47-0.1-0.7-0.16c-0.37-0.09-0.74-0.18-1.12-0.28
				c-0.24-0.06-0.47-0.13-0.71-0.2c-0.4-0.12-0.81-0.24-1.22-0.38c-0.2-0.06-0.39-0.12-0.59-0.19c-0.58-0.2-1.16-0.41-1.75-0.65
				c-0.03-0.01-0.05-0.02-0.08-0.03c-0.61-0.24-1.22-0.51-1.84-0.79c-0.19-0.09-0.38-0.18-0.58-0.27c-0.44-0.21-0.88-0.42-1.32-0.65
				c-0.22-0.11-0.43-0.22-0.65-0.34c-0.58-0.31-1.17-0.62-1.76-0.96c-0.67-0.38-1.33-0.79-1.99-1.2c-0.03-0.02-0.06-0.04-0.09-0.06
				c-0.63-0.4-1.26-0.82-1.89-1.25c-0.22-0.15-0.43-0.31-0.65-0.46c-0.42-0.29-0.83-0.59-1.24-0.9c-0.25-0.19-0.51-0.38-0.76-0.58
				c-0.37-0.29-0.75-0.58-1.12-0.88c-0.27-0.22-0.54-0.44-0.81-0.66c-0.36-0.29-0.71-0.59-1.06-0.89c-0.28-0.24-0.55-0.48-0.83-0.72
				c-0.34-0.3-0.68-0.61-1.02-0.93c-0.28-0.25-0.55-0.51-0.82-0.77c-0.34-0.33-0.69-0.66-1.03-0.99c-0.25-0.25-0.51-0.49-0.76-0.75
				c-0.36-0.36-0.71-0.73-1.06-1.09c-0.23-0.24-0.46-0.47-0.68-0.71c-0.41-0.44-0.82-0.89-1.22-1.34c-0.15-0.17-0.31-0.34-0.46-0.51
				c-0.56-0.63-1.11-1.27-1.65-1.93c-0.11-0.14-0.22-0.28-0.34-0.42c-0.43-0.52-0.85-1.05-1.27-1.58c-0.5-0.64-1-1.29-1.48-1.95
				c-0.07-0.1-0.15-0.2-0.22-0.3c-0.78-1.06-1.54-2.14-2.28-3.24c-0.14-0.2-0.27-0.4-0.41-0.61c-0.93-1.4-1.83-2.83-2.69-4.28
				c-0.11-0.18-0.22-0.36-0.33-0.55c-0.6-1.03-1.18-2.06-1.74-3.11c-0.2-0.38-0.4-0.76-0.59-1.14c-0.21-0.41-0.43-0.81-0.63-1.22
				c-0.28-0.56-0.56-1.13-0.83-1.7c-0.09-0.19-0.19-0.38-0.28-0.58c-0.35-0.74-0.69-1.49-1.02-2.24c-0.09-0.19-0.17-0.39-0.25-0.58
				c-0.24-0.56-0.48-1.12-0.71-1.68c-0.1-0.26-0.21-0.51-0.31-0.77c-0.21-0.53-0.42-1.07-0.62-1.61c-0.09-0.23-0.18-0.47-0.26-0.7
				c-0.25-0.68-0.49-1.36-0.72-2.04c-0.03-0.09-0.07-0.18-0.1-0.27c-0.26-0.77-0.5-1.54-0.74-2.32c-0.08-0.25-0.14-0.49-0.22-0.74
				c-0.16-0.54-0.31-1.07-0.46-1.61c-0.08-0.3-0.16-0.59-0.23-0.89c-0.13-0.5-0.25-0.99-0.37-1.49c-0.07-0.3-0.14-0.59-0.21-0.89
				c-0.12-0.51-0.22-1.02-0.33-1.52c-0.06-0.27-0.11-0.55-0.17-0.82c-0.12-0.65-0.24-1.3-0.35-1.94c-0.02-0.12-0.04-0.23-0.06-0.35
				c-0.12-0.76-0.23-1.52-0.32-2.28c-0.03-0.21-0.05-0.42-0.07-0.63c-0.06-0.55-0.12-1.09-0.17-1.64c-0.02-0.26-0.04-0.52-0.06-0.78
				c-0.04-0.51-0.07-1.02-0.09-1.53c-0.01-0.25-0.03-0.49-0.03-0.73c-0.03-0.72-0.04-1.44-0.04-2.15c0-0.75,0.02-1.48,0.06-2.2
				c0.01-0.21,0.03-0.4,0.04-0.61c0.03-0.5,0.06-0.99,0.11-1.47c0.02-0.28,0.06-0.55,0.09-0.83c0.04-0.41,0.09-0.82,0.15-1.22
				c0.04-0.29,0.08-0.58,0.13-0.87c0.06-0.37,0.12-0.73,0.19-1.09c0.06-0.32,0.13-0.64,0.19-0.96c0.07-0.32,0.14-0.64,0.22-0.96
				c0.09-0.37,0.19-0.74,0.29-1.1c0.08-0.28,0.16-0.56,0.24-0.84c0.13-0.43,0.27-0.85,0.42-1.27c0.08-0.23,0.16-0.46,0.24-0.68
				c0.27-0.7,0.55-1.39,0.86-2.04c0.24-0.51,0.49-1.01,0.76-1.49c0.03-0.05,0.06-0.1,0.09-0.15c0.24-0.42,0.48-0.83,0.74-1.23
				c0.41-0.64,0.85-1.24,1.31-1.82c0.11-0.14,0.22-0.27,0.33-0.41c0.44-0.53,0.9-1.04,1.38-1.52c0.04-0.04,0.08-0.09,0.12-0.13
				c0.52-0.5,1.06-0.96,1.62-1.4c0.14-0.11,0.27-0.21,0.41-0.31c0.57-0.42,1.16-0.83,1.77-1.18l-20.86,12.12
				c-0.61,0.36-1.2,0.76-1.77,1.18c-0.14,0.1-0.27,0.2-0.41,0.31c-0.56,0.44-1.1,0.9-1.62,1.4c-0.04,0.04-0.08,0.08-0.12,0.12
				c-0.48,0.48-0.94,0.99-1.38,1.52c-0.11,0.14-0.22,0.27-0.33,0.41c-0.46,0.58-0.9,1.18-1.31,1.82c-0.01,0.02-0.03,0.04-0.04,0.06
				c-0.25,0.39-0.48,0.79-0.71,1.19c-0.02,0.04-0.05,0.09-0.08,0.13c-0.26,0.46-0.5,0.94-0.73,1.43c-0.01,0.02-0.02,0.04-0.03,0.06
				c-0.31,0.65-0.59,1.34-0.86,2.04c-0.02,0.06-0.05,0.12-0.08,0.18c-0.06,0.16-0.11,0.34-0.17,0.5c-0.15,0.42-0.29,0.84-0.42,1.27
				c-0.04,0.12-0.08,0.23-0.12,0.35c-0.05,0.16-0.08,0.33-0.13,0.5c-0.1,0.36-0.2,0.72-0.29,1.1c-0.04,0.16-0.08,0.3-0.12,0.46
				c-0.04,0.16-0.07,0.34-0.1,0.5c-0.07,0.32-0.13,0.64-0.19,0.96c-0.03,0.17-0.07,0.33-0.1,0.51c-0.03,0.19-0.06,0.39-0.09,0.59
				c-0.05,0.29-0.09,0.58-0.13,0.87c-0.02,0.15-0.05,0.3-0.07,0.46c-0.03,0.25-0.05,0.51-0.08,0.76c-0.03,0.27-0.06,0.55-0.09,0.83
				c-0.01,0.12-0.03,0.23-0.04,0.34c-0.03,0.37-0.05,0.75-0.07,1.13c-0.01,0.2-0.03,0.4-0.04,0.61c0,0.05-0.01,0.1-0.01,0.15
				c-0.03,0.64-0.04,1.28-0.05,1.94c0,0.04,0,0.08,0,0.12c0,0.6,0.01,1.2,0.02,1.81c0,0.12,0.01,0.23,0.02,0.35
				c0.01,0.24,0.02,0.49,0.03,0.74c0.01,0.29,0.02,0.57,0.04,0.86c0.01,0.22,0.04,0.45,0.05,0.67c0.02,0.26,0.04,0.52,0.06,0.78
				c0.01,0.17,0.02,0.33,0.04,0.5c0.04,0.38,0.08,0.76,0.13,1.14c0.02,0.21,0.04,0.42,0.07,0.63c0.01,0.07,0.01,0.13,0.02,0.2
				c0.08,0.67,0.18,1.34,0.29,2.02c0,0.02,0.01,0.04,0.01,0.06c0.02,0.12,0.04,0.23,0.06,0.35c0.09,0.54,0.18,1.08,0.28,1.62
				c0.02,0.11,0.04,0.21,0.06,0.32c0.05,0.27,0.11,0.54,0.17,0.82c0.07,0.32,0.12,0.64,0.19,0.96c0.04,0.19,0.09,0.38,0.13,0.57
				c0.07,0.29,0.14,0.59,0.21,0.88c0.05,0.22,0.1,0.44,0.15,0.66c0.07,0.28,0.15,0.56,0.22,0.83c0.08,0.3,0.15,0.59,0.23,0.89
				c0.04,0.14,0.07,0.28,0.11,0.41c0.11,0.4,0.23,0.8,0.35,1.2c0.07,0.24,0.14,0.49,0.21,0.73c0.02,0.07,0.04,0.13,0.06,0.2
				c0.21,0.69,0.44,1.39,0.67,2.08c0,0.01,0.01,0.03,0.01,0.04c0.03,0.09,0.06,0.18,0.09,0.27c0.2,0.58,0.4,1.16,0.61,1.74
				c0.04,0.1,0.08,0.2,0.11,0.3c0.09,0.24,0.18,0.47,0.27,0.71c0.12,0.32,0.24,0.64,0.36,0.96c0.08,0.22,0.17,0.43,0.26,0.64
				c0.1,0.26,0.21,0.51,0.31,0.77c0.07,0.18,0.14,0.36,0.22,0.54c0.16,0.38,0.33,0.76,0.49,1.14c0.08,0.19,0.16,0.39,0.25,0.58
				c0.03,0.07,0.06,0.14,0.09,0.2c0.29,0.65,0.58,1.3,0.89,1.95c0.01,0.03,0.03,0.06,0.04,0.09c0.09,0.19,0.18,0.38,0.27,0.57
				c0.24,0.49,0.47,0.98,0.71,1.47c0.04,0.08,0.08,0.16,0.12,0.24c0.2,0.4,0.41,0.8,0.62,1.2c0.17,0.33,0.33,0.65,0.5,0.98
				c0.03,0.06,0.07,0.12,0.1,0.18c0.56,1.04,1.14,2.08,1.74,3.1c0.05,0.09,0.1,0.18,0.15,0.26c0.06,0.1,0.12,0.19,0.18,0.29
				c0.86,1.45,1.75,2.88,2.69,4.28c0.05,0.08,0.1,0.16,0.15,0.23c0.08,0.13,0.18,0.25,0.26,0.37c0.74,1.1,1.49,2.18,2.28,3.24
				c0,0.01,0.01,0.01,0.01,0.02c0.08,0.1,0.16,0.21,0.24,0.31c0.48,0.65,0.97,1.29,1.46,1.92c0.03,0.04,0.06,0.08,0.09,0.11
				c0.4,0.5,0.8,1,1.21,1.49c0.11,0.13,0.21,0.26,0.32,0.39c0.01,0.01,0.02,0.02,0.03,0.04c0.51,0.61,1.03,1.22,1.55,1.82
				c0.02,0.03,0.05,0.05,0.07,0.08c0.15,0.17,0.3,0.33,0.45,0.5c0.35,0.39,0.69,0.78,1.05,1.16c0.06,0.07,0.12,0.13,0.18,0.19
				c0.22,0.24,0.45,0.48,0.68,0.71c0.26,0.27,0.52,0.55,0.78,0.82c0.09,0.09,0.19,0.18,0.28,0.27c0.25,0.25,0.5,0.5,0.75,0.74
				c0.22,0.22,0.44,0.44,0.67,0.66c0.12,0.12,0.24,0.22,0.37,0.34c0.27,0.26,0.54,0.51,0.82,0.76c0.2,0.18,0.39,0.37,0.58,0.54
				c0.15,0.13,0.3,0.26,0.44,0.39c0.27,0.24,0.55,0.48,0.82,0.72c0.17,0.15,0.34,0.3,0.52,0.45c0.18,0.15,0.36,0.29,0.54,0.44
				c0.27,0.22,0.54,0.44,0.81,0.66c0.15,0.12,0.29,0.24,0.43,0.35c0.23,0.18,0.46,0.35,0.69,0.52c0.25,0.19,0.5,0.39,0.76,0.58
				c0.11,0.08,0.21,0.16,0.32,0.24c0.31,0.23,0.62,0.44,0.93,0.66c0.22,0.15,0.43,0.31,0.65,0.46c0.06,0.04,0.11,0.08,0.17,0.12
				c0.56,0.39,1.13,0.76,1.7,1.12c0,0,0.01,0.01,0.01,0.01c0.03,0.02,0.06,0.04,0.09,0.05c0.53,0.34,1.06,0.66,1.59,0.98
				c0.13,0.08,0.26,0.15,0.39,0.23c0.43,0.25,0.85,0.48,1.27,0.71c0.16,0.09,0.32,0.17,0.49,0.25c0.22,0.11,0.43,0.23,0.65,0.34
				c0.17,0.09,0.34,0.18,0.5,0.26c0.28,0.14,0.55,0.26,0.82,0.39c0.19,0.09,0.38,0.18,0.57,0.27c0.08,0.03,0.15,0.07,0.23,0.11
				c0.54,0.24,1.07,0.47,1.6,0.68c0,0,0.01,0,0.01,0c0.03,0.01,0.05,0.02,0.08,0.03c0.51,0.2,1.02,0.4,1.53,0.58
				c0.07,0.03,0.15,0.05,0.22,0.07c0.2,0.07,0.39,0.13,0.58,0.19c0.27,0.09,0.54,0.18,0.8,0.26c0.14,0.04,0.28,0.07,0.42,0.12
				c0.24,0.07,0.47,0.13,0.71,0.2c0.18,0.05,0.36,0.1,0.53,0.15c0.2,0.05,0.39,0.08,0.58,0.13c0.24,0.05,0.47,0.11,0.71,0.16
				c0.12,0.02,0.24,0.06,0.36,0.08c0.23,0.04,0.45,0.07,0.67,0.11c0.27,0.05,0.54,0.1,0.81,0.13c0.09,0.01,0.18,0.03,0.27,0.05
				c0.23,0.03,0.45,0.04,0.68,0.07c0.29,0.03,0.58,0.07,0.87,0.09c0.08,0.01,0.16,0.02,0.24,0.02c0.2,0.01,0.39,0.01,0.59,0.02
				c0.35,0.02,0.69,0.03,1.03,0.03c0.09,0,0.19,0.01,0.28,0.01c0.15,0,0.29-0.02,0.44-0.02c0.43-0.01,0.85-0.03,1.27-0.06
				c0.12-0.01,0.25-0.01,0.38-0.02c0.1-0.01,0.19-0.03,0.28-0.04c0.63-0.07,1.25-0.15,1.86-0.27c0.06-0.01,0.12-0.01,0.18-0.03
				c0.02,0,0.03-0.01,0.05-0.01c0.14-0.03,0.27-0.07,0.4-0.1c0.37-0.08,0.75-0.17,1.11-0.27c0.18-0.05,0.36-0.11,0.55-0.17
				c0.24-0.07,0.48-0.14,0.71-0.22c0.06-0.02,0.12-0.05,0.18-0.07c0.36-0.13,0.71-0.28,1.07-0.43c0.17-0.07,0.35-0.14,0.52-0.22
				c0.51-0.24,1.02-0.5,1.51-0.78l20.86-12.12c-0.49,0.28-0.99,0.54-1.51,0.78C466.74,601.83,466.57,601.89,466.39,601.97z"/>
			<polygon class="st10" points="491,617.11 470.14,629.23 529.08,721.28 549.94,709.16 			"/>
			<path class="st11" d="M499.74,583.8c-0.01-0.17-0.02-0.35-0.02-0.52c-0.01-0.36-0.03-0.72-0.05-1.09
				c-0.02-0.42-0.03-0.85-0.06-1.27c-0.02-0.33-0.05-0.67-0.08-1c-0.03-0.38-0.06-0.77-0.09-1.15c-0.02-0.25-0.04-0.5-0.06-0.74
				c-0.05-0.56-0.12-1.12-0.19-1.69c-0.04-0.31-0.07-0.62-0.1-0.94c-0.01-0.1-0.02-0.2-0.03-0.3c-0.13-1-0.27-2-0.43-3
				c0-0.03-0.01-0.06-0.02-0.09c-0.03-0.17-0.06-0.35-0.09-0.53c-0.13-0.8-0.26-1.6-0.42-2.41c-0.03-0.16-0.07-0.32-0.1-0.48
				c-0.08-0.4-0.16-0.81-0.25-1.21c-0.1-0.47-0.19-0.95-0.29-1.42c-0.06-0.28-0.13-0.56-0.2-0.84c-0.1-0.44-0.2-0.88-0.31-1.31
				c-0.08-0.32-0.15-0.65-0.23-0.97c-0.1-0.42-0.22-0.83-0.33-1.25c-0.11-0.44-0.23-0.87-0.34-1.31c-0.06-0.21-0.11-0.41-0.16-0.62
				c-0.17-0.59-0.35-1.19-0.52-1.78c-0.11-0.36-0.21-0.73-0.32-1.09c-0.03-0.1-0.05-0.19-0.08-0.29c-0.32-1.03-0.65-2.07-0.99-3.1
				c-0.01-0.02-0.01-0.04-0.02-0.06c-0.05-0.14-0.1-0.28-0.15-0.42c-0.29-0.86-0.59-1.72-0.9-2.58c-0.06-0.15-0.12-0.3-0.17-0.46
				c-0.13-0.35-0.26-0.69-0.39-1.04c-0.18-0.48-0.35-0.96-0.54-1.43c-0.13-0.32-0.26-0.64-0.39-0.96c-0.15-0.38-0.3-0.76-0.46-1.14
				c-0.11-0.27-0.21-0.54-0.33-0.81c-0.23-0.56-0.48-1.13-0.72-1.69c-0.13-0.29-0.25-0.59-0.38-0.88c-0.04-0.1-0.08-0.2-0.13-0.3
				c-0.43-0.97-0.87-1.94-1.32-2.9c-0.02-0.04-0.04-0.09-0.06-0.13c-0.13-0.28-0.27-0.56-0.41-0.84c-0.35-0.73-0.7-1.47-1.06-2.19
				c-0.06-0.12-0.12-0.23-0.18-0.35c-0.3-0.6-0.62-1.2-0.93-1.8c-0.25-0.48-0.49-0.97-0.75-1.44c-0.05-0.09-0.1-0.17-0.15-0.26
				c-0.83-1.55-1.7-3.09-2.59-4.62c-0.08-0.13-0.14-0.26-0.22-0.39c-0.22-0.38-0.46-0.75-0.69-1.13c-0.38-0.64-0.76-1.27-1.15-1.9
				c-0.34-0.55-0.69-1.09-1.03-1.63c-0.4-0.62-0.79-1.23-1.2-1.85c-0.14-0.21-0.27-0.42-0.41-0.63c-0.13-0.19-0.26-0.37-0.39-0.56
				c-1.1-1.63-2.22-3.24-3.38-4.81c-0.01-0.01-0.01-0.02-0.02-0.02c-0.11-0.15-0.23-0.3-0.35-0.45c-0.72-0.96-1.44-1.92-2.18-2.86
				c-0.04-0.05-0.08-0.11-0.13-0.17c-0.58-0.73-1.17-1.46-1.76-2.18c-0.17-0.21-0.34-0.42-0.51-0.63c-0.01-0.02-0.03-0.03-0.04-0.05
				c-0.76-0.92-1.53-1.82-2.31-2.71c-0.03-0.04-0.07-0.07-0.1-0.11c-0.22-0.26-0.45-0.5-0.68-0.75c-0.52-0.58-1.03-1.16-1.55-1.72
				c-0.09-0.1-0.18-0.19-0.27-0.28c-0.33-0.36-0.67-0.7-1.01-1.06c-0.39-0.41-0.78-0.83-1.17-1.23c-0.14-0.14-0.27-0.27-0.41-0.4
				c-0.37-0.37-0.74-0.74-1.12-1.1c-0.33-0.33-0.66-0.66-0.99-0.98c-0.18-0.17-0.36-0.33-0.54-0.5c-0.4-0.38-0.81-0.76-1.22-1.13
				c-0.29-0.27-0.58-0.55-0.87-0.81c-0.22-0.2-0.44-0.38-0.66-0.58c-0.41-0.36-0.82-0.72-1.23-1.07c-0.26-0.22-0.51-0.45-0.77-0.67
				c-0.27-0.22-0.54-0.44-0.8-0.66c-0.4-0.33-0.8-0.66-1.21-0.99c-0.22-0.17-0.43-0.36-0.65-0.53c-0.34-0.27-0.68-0.52-1.02-0.78
				c-0.38-0.29-0.75-0.58-1.13-0.86c-0.16-0.12-0.31-0.24-0.47-0.36c-0.46-0.34-0.92-0.65-1.38-0.98c-0.32-0.23-0.64-0.46-0.96-0.68
				c-0.09-0.06-0.17-0.12-0.26-0.18c-0.84-0.57-1.68-1.13-2.53-1.67c-0.01,0-0.01-0.01-0.02-0.01c-0.05-0.03-0.1-0.06-0.14-0.09
				c-0.78-0.5-1.57-0.98-2.36-1.45c-0.19-0.11-0.39-0.23-0.59-0.34c-0.63-0.37-1.27-0.72-1.89-1.06c-0.24-0.13-0.48-0.25-0.72-0.38
				c-0.32-0.17-0.65-0.34-0.97-0.5c-0.25-0.13-0.5-0.27-0.75-0.39c-0.41-0.2-0.81-0.38-1.22-0.57c-0.28-0.13-0.57-0.27-0.85-0.4
				c-0.11-0.05-0.23-0.11-0.34-0.16c-0.8-0.36-1.6-0.7-2.39-1.01c0,0-0.01,0-0.01-0.01c-0.04-0.01-0.07-0.03-0.11-0.04
				c-0.77-0.31-1.53-0.59-2.29-0.86c-0.11-0.04-0.22-0.07-0.33-0.11c-0.29-0.1-0.58-0.19-0.87-0.28c-0.4-0.13-0.8-0.27-1.19-0.39
				c-0.21-0.06-0.41-0.11-0.62-0.17c-0.35-0.1-0.7-0.2-1.05-0.29c-0.26-0.07-0.53-0.15-0.79-0.22c-0.29-0.07-0.58-0.13-0.87-0.19
				c-0.35-0.08-0.7-0.16-1.05-0.23c-0.18-0.04-0.36-0.09-0.54-0.12c-0.34-0.07-0.67-0.11-1-0.17c-0.4-0.07-0.81-0.14-1.2-0.2
				c-0.14-0.02-0.28-0.05-0.41-0.07c-0.34-0.05-0.67-0.07-1.01-0.1c-0.43-0.05-0.86-0.1-1.28-0.13c-0.12-0.01-0.24-0.03-0.36-0.04
				c-0.3-0.02-0.58-0.02-0.87-0.03c-0.51-0.02-1.02-0.05-1.53-0.05c-0.14,0-0.28-0.01-0.41-0.01c-0.22,0-0.43,0.03-0.65,0.03
				c-0.64,0.01-1.27,0.04-1.89,0.09c-0.18,0.01-0.38,0.01-0.56,0.03c-0.27,0.02-0.53,0.06-0.8,0.09c-0.19,0.02-0.39,0.04-0.58,0.07
				c-0.7,0.09-1.4,0.2-2.08,0.34c-0.02,0-0.05,0.01-0.07,0.02c-0.2,0.04-0.4,0.1-0.6,0.14c-0.56,0.12-1.11,0.25-1.65,0.41
				c-0.27,0.08-0.54,0.17-0.81,0.26c-0.35,0.11-0.71,0.21-1.05,0.33c-0.09,0.03-0.17,0.07-0.26,0.11c-0.54,0.2-1.06,0.42-1.58,0.64
				c-0.26,0.11-0.52,0.21-0.77,0.33c-0.76,0.36-1.51,0.74-2.24,1.17l-20.86,12.12c0.73-0.42,1.48-0.81,2.24-1.17
				c0.25-0.12,0.51-0.22,0.77-0.33c0.52-0.23,1.05-0.45,1.59-0.65c0.43-0.16,0.87-0.3,1.31-0.44c0.27-0.09,0.54-0.18,0.82-0.26
				c0.54-0.15,1.09-0.28,1.64-0.41c0.2-0.05,0.4-0.1,0.61-0.14c0.71-0.14,1.42-0.26,2.15-0.36c0.19-0.03,0.39-0.05,0.58-0.07
				c0.45-0.05,0.9-0.09,1.35-0.12c0.62-0.05,1.25-0.08,1.89-0.09c0.36-0.01,0.71-0.02,1.07-0.02c0.5,0,1.02,0.03,1.53,0.05
				c0.41,0.02,0.82,0.03,1.24,0.07c0.43,0.03,0.86,0.08,1.29,0.13c0.47,0.05,0.94,0.1,1.42,0.17c0.4,0.06,0.81,0.13,1.21,0.2
				c0.51,0.09,1.02,0.18,1.54,0.28c0.35,0.07,0.7,0.15,1.05,0.23c0.55,0.13,1.1,0.26,1.66,0.41c0.35,0.09,0.7,0.19,1.05,0.29
				c0.6,0.17,1.21,0.36,1.81,0.56c0.29,0.1,0.58,0.18,0.87,0.29c0.87,0.3,1.74,0.62,2.63,0.97c0.03,0.01,0.06,0.02,0.09,0.04
				c0.91,0.36,1.82,0.76,2.74,1.18c0.28,0.13,0.57,0.27,0.85,0.4c0.65,0.31,1.31,0.63,1.97,0.96c0.32,0.16,0.65,0.33,0.97,0.5
				c0.87,0.46,1.74,0.93,2.62,1.43c0.99,0.57,1.96,1.17,2.94,1.78c0.05,0.03,0.1,0.06,0.15,0.09c0.94,0.6,1.87,1.22,2.8,1.86
				c0.32,0.22,0.64,0.45,0.96,0.68c0.62,0.44,1.24,0.88,1.85,1.34c0.38,0.28,0.75,0.57,1.13,0.86c0.56,0.43,1.11,0.86,1.66,1.3
				c0.41,0.33,0.81,0.66,1.21,0.99c0.53,0.43,1.05,0.88,1.57,1.32c0.41,0.35,0.82,0.71,1.23,1.08c0.51,0.45,1.02,0.91,1.52,1.38
				c0.41,0.38,0.82,0.75,1.22,1.13c0.51,0.49,1.02,0.98,1.53,1.48c0.37,0.37,0.75,0.73,1.12,1.11c0.53,0.53,1.05,1.08,1.57,1.62
				c0.34,0.36,0.68,0.71,1.02,1.07c0.61,0.66,1.21,1.32,1.82,2c0.23,0.25,0.46,0.5,0.68,0.76c0.83,0.94,1.65,1.9,2.45,2.87
				c0.17,0.2,0.33,0.42,0.5,0.62c0.64,0.78,1.27,1.55,1.89,2.35c0.74,0.94,1.46,1.89,2.17,2.85c0.12,0.16,0.25,0.32,0.36,0.48
				c1.16,1.58,2.28,3.19,3.38,4.82c0.27,0.39,0.53,0.78,0.8,1.18c0.41,0.61,0.8,1.23,1.2,1.85c0.35,0.54,0.69,1.08,1.03,1.62
				c0.39,0.63,0.77,1.27,1.16,1.9c0.3,0.51,0.61,1.01,0.91,1.52c0.89,1.52,1.76,3.06,2.59,4.62c0.3,0.56,0.59,1.13,0.89,1.7
				c0.31,0.6,0.63,1.2,0.94,1.81c0.42,0.84,0.83,1.68,1.23,2.53c0.14,0.29,0.28,0.57,0.41,0.86c0.52,1.1,1.02,2.22,1.51,3.33
				c0.13,0.29,0.25,0.58,0.38,0.88c0.36,0.83,0.71,1.66,1.05,2.5c0.16,0.38,0.31,0.76,0.46,1.14c0.32,0.79,0.62,1.59,0.92,2.38
				c0.13,0.35,0.27,0.7,0.4,1.06c0.37,1.01,0.73,2.02,1.07,3.03c0.05,0.14,0.1,0.28,0.14,0.41c0.38,1.15,0.75,2.3,1.1,3.45
				c0.11,0.37,0.21,0.73,0.32,1.1c0.23,0.8,0.46,1.6,0.68,2.39c0.12,0.44,0.23,0.88,0.35,1.32c0.19,0.74,0.38,1.48,0.55,2.22
				c0.1,0.44,0.21,0.88,0.31,1.31c0.17,0.76,0.33,1.51,0.49,2.27c0.08,0.4,0.17,0.81,0.25,1.21c0.19,0.96,0.36,1.92,0.51,2.88
				c0.03,0.18,0.06,0.35,0.09,0.53c0.18,1.13,0.34,2.26,0.47,3.38c0.04,0.31,0.07,0.62,0.1,0.94c0.09,0.81,0.18,1.62,0.25,2.43
				c0.03,0.38,0.06,0.77,0.09,1.15c0.06,0.76,0.1,1.52,0.14,2.28c0.02,0.36,0.04,0.73,0.05,1.09c0.04,1.07,0.06,2.14,0.06,3.21
				c0,1.46-0.06,2.88-0.14,4.28c-0.02,0.28-0.03,0.56-0.05,0.83c-0.1,1.34-0.22,2.65-0.39,3.93c-0.03,0.24-0.07,0.48-0.11,0.72
				c-0.15,1.07-0.33,2.12-0.54,3.14c-0.06,0.32-0.12,0.64-0.19,0.95c-0.27,1.24-0.56,2.45-0.9,3.61c-0.01,0.05-0.03,0.09-0.04,0.13
				c-0.34,1.14-0.71,2.23-1.11,3.3c-0.23,0.6-0.48,1.16-0.73,1.73c-0.26,0.6-0.5,1.21-0.78,1.79c-0.09,0.19-0.19,0.36-0.28,0.55
				c-0.43,0.85-0.88,1.67-1.36,2.46c-0.09,0.15-0.18,0.32-0.28,0.47c-0.59,0.95-1.21,1.86-1.87,2.72L491,617.11
				c0.6-0.79,1.18-1.61,1.73-2.48c0.05-0.08,0.09-0.16,0.14-0.24c0.1-0.15,0.18-0.31,0.28-0.47c0.48-0.79,0.93-1.61,1.36-2.46
				c0.09-0.18,0.19-0.36,0.28-0.55c0.05-0.11,0.11-0.21,0.16-0.32c0.22-0.47,0.41-0.98,0.62-1.47c0.25-0.57,0.5-1.13,0.73-1.73
				c0.03-0.09,0.08-0.18,0.11-0.27c0.36-0.98,0.69-1.99,1-3.03c0.01-0.05,0.03-0.09,0.05-0.14c0,0,0-0.01,0-0.01
				c0.29-0.98,0.55-1.98,0.78-3.01c0.04-0.19,0.08-0.4,0.12-0.59c0.07-0.31,0.13-0.64,0.19-0.95c0.09-0.46,0.19-0.9,0.27-1.37
				c0.1-0.58,0.18-1.18,0.26-1.78c0.03-0.24,0.08-0.48,0.11-0.72c0.02-0.12,0.04-0.24,0.05-0.36c0.12-0.93,0.21-1.87,0.29-2.84
				c0.02-0.24,0.03-0.49,0.05-0.73c0.02-0.28,0.03-0.55,0.05-0.83c0.03-0.42,0.06-0.83,0.08-1.26c0.04-0.93,0.06-1.88,0.07-2.85
				c0-0.06,0-0.11,0-0.17C499.78,585.6,499.76,584.7,499.74,583.8z"/>
			<path class="st12" d="M470.14,629.23l58.94,92.06l-9.41,7.21l-58.51-91.39c-10.87,6.15-25.82,5.22-42.28-4.29
				c-33-19.05-59.75-65.4-59.64-103.31c0.11-37.91,27.03-53.26,60.03-34.21c32.99,19.05,59.75,65.4,59.64,103.31
				C478.88,611.64,475.67,622,470.14,629.23z M418.94,610.3c22.18,12.81,40.3,2.49,40.37-23.01c0.07-25.5-17.92-56.66-40.11-69.47
				c-22.19-12.81-40.3-2.49-40.37,23.01C378.76,566.33,396.75,597.49,418.94,610.3"/>
		</g>
		<g class="st13">
			
				<ellipse transform="matrix(0.8646 -0.5025 0.5025 0.8646 -226.4985 287.2723)" class="st8" cx="419.78" cy="563.9" rx="32.67" ry="56.4"/>
		</g>
		<path class="st14" d="M410.07,514.02c-4.68-3.13-7.78-1.58-12.45-1.58c2.91,24.99,18.2,73.3,23.31,97.92
			c3.11,3.11,6.22,4.66,12.43,4.66C432.31,609.56,413.25,541.06,410.07,514.02z"/>
		<path class="st14" d="M430.26,524.88c-9.33-7.77-14.16-10.29-18.65-10.88c7.77,32.64,25.56,96.61,26.42,101.03
			c0,0,6.22,0,12.43-4.66C449.02,604.61,431.37,525.8,430.26,524.88z"/>
	</g>
</g>
</svg>
