<?xml version="1.0" standalone="no"?>
<!DOCTYPE svg PUBLIC "-//W3C//DTD SVG 20010904//EN"
 "http://www.w3.org/TR/2001/REC-SVG-20010904/DTD/svg10.dtd">
<svg version="1.0" xmlns="http://www.w3.org/2000/svg"
 width="102.000000pt" height="94.000000pt" viewBox="0 0 102.000000 94.000000"
 preserveAspectRatio="xMidYMid meet">

<g transform="translate(0.000000,94.000000) scale(0.100000,-0.100000)"
fill="#000000" stroke="none">
<path d="M177 926 c-64 -24 -115 -63 -144 -113 -23 -40 -28 -59 -28 -118 0
-58 5 -78 28 -117 81 -138 274 -171 397 -68 l35 29 -52 53 -53 52 -29 -17
c-16 -9 -48 -17 -71 -17 -88 0 -122 103 -51 157 25 19 95 16 123 -6 l25 -20
53 54 c61 62 60 65 -21 110 -62 33 -154 43 -212 21z"/>
<path d="M660 920 c-70 -24 -141 -97 -160 -164 -33 -119 37 -249 157 -292 49
-17 147 -17 196 0 121 44 190 173 156 293 -19 68 -98 146 -169 167 -69 21
-112 20 -180 -4z m161 -169 c48 -49 34 -114 -30 -141 -38 -15 -75 -7 -107 25
-34 34 -32 79 5 116 41 40 91 40 132 0z"/>
<path d="M834 353 c-24 -57 -78 -126 -124 -158 -40 -27 -40 -28 -40 -91 0 -35
2 -64 5 -64 22 0 118 61 162 103 50 47 123 168 123 204 0 14 -24 26 -78 38
-30 6 -33 4 -48 -32z"/>
</g>
</svg>
