<?xml version="1.0" standalone="no"?>
<!DOCTYPE svg PUBLIC "-//W3C//DTD SVG 20010904//EN"
 "http://www.w3.org/TR/2001/REC-SVG-20010904/DTD/svg10.dtd">
<svg version="1.0" xmlns="http://www.w3.org/2000/svg"
 width="500.000000pt" height="500.000000pt" viewBox="0 0 500.000000 500.000000"
 preserveAspectRatio="xMidYMid meet">

<g transform="translate(0.000000,500.000000) scale(0.100000,-0.100000)"
fill="#000000" stroke="none">
<path d="M1895 3510 c-369 -39 -698 -288 -833 -631 -56 -142 -67 -208 -66
-389 1 -149 3 -174 28 -255 89 -296 271 -517 531 -645 156 -76 245 -95 450
-95 146 0 182 3 255 23 168 46 302 120 424 234 192 178 285 356 325 619 l18
114 67 -140 c37 -77 110 -230 161 -340 189 -407 222 -471 250 -493 26 -21 37
-22 224 -22 212 1 227 4 262 56 18 28 19 56 19 899 l0 870 -24 50 c-28 60 -76
108 -131 131 -49 21 -147 22 -196 1 -49 -20 -106 -72 -132 -121 -21 -40 -22
-52 -25 -428 -2 -218 -7 -388 -12 -388 -5 0 -12 10 -16 23 -14 46 -395 811
-419 843 -13 17 -48 44 -77 58 -47 23 -63 26 -165 26 -94 0 -121 -4 -158 -21
-56 -26 -117 -95 -133 -147 -8 -26 -12 -132 -12 -314 l0 -276 -177 -5 c-187
-5 -227 -13 -333 -67 -64 -33 -162 -135 -199 -208 -30 -60 -61 -164 -61 -209
l0 -23 345 0 c243 0 345 -3 345 -11 0 -6 -28 -39 -63 -74 -283 -283 -746 -158
-847 230 -25 98 -5 242 48 339 77 142 237 247 395 260 154 13 275 71 372 177
77 85 135 223 135 321 l0 38 -252 -1 c-139 -1 -285 -5 -323 -9z"/>
</g>
</svg>
